<svg xmlns="http://www.w3.org/2000/svg" width="1200" height="720" viewBox="0 0 1200 720">
  <defs>
    <linearGradient id="bg" x1="0" y1="0" x2="1" y2="1">
      <stop offset="0" stop-color="#0f172a"/>
      <stop offset="0.55" stop-color="#2563eb"/>
      <stop offset="1" stop-color="#22d3ee"/>
    </linearGradient>
    <radialGradient id="glow" cx="72%" cy="24%" r="55%">
      <stop offset="0" stop-color="#ffffff" stop-opacity="0.45"/>
      <stop offset="1" stop-color="#ffffff" stop-opacity="0"/>
    </radialGradient>
    <filter id="shadow"><feDropShadow dx="0" dy="28" stdDeviation="28" flood-opacity="0.28"/></filter>
  </defs>
  <rect width="1200" height="720" rx="56" fill="url(#bg)"/>
  <rect width="1200" height="720" rx="56" fill="url(#glow)"/>
  <g opacity="0.18" stroke="#fff" stroke-width="2">
    <path d="M120 150 C260 80 420 210 560 140 S900 100 1080 190" fill="none"/>
    <path d="M60 530 C260 420 450 600 650 470 S980 410 1140 540" fill="none"/>
  </g>
  <g filter="url(#shadow)">
    <rect x="148" y="180" width="390" height="360" rx="38" fill="#ffffff" opacity="0.94"/>
    <circle cx="256" cy="288" r="56" fill="#2563eb"/>
    <circle cx="256" cy="288" r="30" fill="#fff"/>
    <circle cx="256" cy="288" r="15" fill="#2563eb"/>
    <rect x="330" y="248" width="138" height="24" rx="12" fill="#0f172a" opacity="0.88"/>
    <rect x="330" y="292" width="150" height="16" rx="8" fill="#64748b" opacity="0.45"/>
    <rect x="330" y="322" width="108" height="16" rx="8" fill="#64748b" opacity="0.32"/>
    <rect x="205" y="390" width="270" height="68" rx="22" fill="#dbeafe"/>
    <text x="340" y="434" text-anchor="middle" font-family="Inter,Arial,sans-serif" font-size="28" font-weight="900" fill="#1d4ed8">AI COMPARISON</text>
  </g>
  <text x="625" y="300" font-family="Inter,Arial,sans-serif" font-size="74" font-weight="900" fill="#ffffff">GPT-4o</text>
  <text x="625" y="374" font-family="Inter,Arial,sans-serif" font-size="54" font-weight="800" fill="#dbeafe">vs Claude</text>
  <text x="625" y="432" font-family="Inter,Arial,sans-serif" font-size="24" font-weight="700" fill="#e0f2fe">AIDAYNE.com Newsroom</text>
</svg>
